<svg width="24" height="24" viewBox="0 0 24 24" fill="none" xmlns="http://www.w3.org/2000/svg">
<path d="M20.1036 5.22601C19.6354 4.7576 19.0795 4.38602 18.4677 4.13251C17.8558 3.87899 17.2001 3.7485 16.5378 3.7485C15.8755 3.7485 15.2197 3.87899 14.6079 4.13251C13.996 4.38602 13.4401 4.7576 12.9719 5.22601L12.0003 6.19768L11.0286 5.22601C10.0829 4.28029 8.80022 3.74899 7.46277 3.74899C6.12532 3.74899 4.84266 4.28029 3.89694 5.22601C2.95122 6.17173 2.41992 7.4544 2.41992 8.79184C2.41992 10.1293 2.95122 11.412 3.89694 12.3577L4.8686 13.3293L12.0003 20.461L19.1319 13.3293L20.1036 12.3577C20.572 11.8895 20.9436 11.3336 21.1971 10.7218C21.4506 10.1099 21.5811 9.45412 21.5811 8.79184C21.5811 8.12956 21.4506 7.47377 21.1971 6.86194C20.9436 6.2501 20.572 5.6942 20.1036 5.22601V5.22601Z" stroke="black" stroke-linecap="round" stroke-linejoin="round"/>
</svg>
