<svg width="28" height="26" viewBox="0 0 28 26" fill="none" xmlns="http://www.w3.org/2000/svg">
<path d="M24.8046 3.96799C24.1803 3.34344 23.4391 2.84801 22.6233 2.50999C21.8075 2.17197 20.9332 1.99799 20.0501 1.99799C19.1671 1.99799 18.2927 2.17197 17.4769 2.50999C16.6611 2.84801 15.9199 3.34344 15.2957 3.96799L14.0001 5.26355L12.7046 3.96799C11.4436 2.70704 9.73338 1.99864 7.95012 1.99864C6.16686 1.99864 4.45663 2.70704 3.19567 3.96799C1.93472 5.22895 1.22632 6.93918 1.22632 8.72244C1.22632 10.5057 1.93472 12.2159 3.19567 13.4769L4.49123 14.7724L14.0001 24.2813L23.509 14.7724L24.8046 13.4769C25.4291 12.8526 25.9245 12.1114 26.2626 11.2957C26.6006 10.4799 26.7746 9.60548 26.7746 8.72244C26.7746 7.8394 26.6006 6.96501 26.2626 6.14923C25.9245 5.33344 25.4291 4.59225 24.8046 3.96799V3.96799Z" stroke="black" stroke-width="2" stroke-linecap="round" stroke-linejoin="round"/>
</svg>
