<svg width="28" height="28" viewBox="0 0 28 28" fill="none" xmlns="http://www.w3.org/2000/svg">
<path d="M25.2028 19.4068V22.9068C25.2041 23.2317 25.1376 23.5533 25.0074 23.851C24.8772 24.1487 24.6863 24.416 24.4469 24.6356C24.2075 24.8553 23.9248 25.0225 23.617 25.1266C23.3092 25.2307 22.9831 25.2694 22.6595 25.2401C19.0694 24.85 15.621 23.6233 12.5911 21.6585C9.77227 19.8672 7.38236 17.4773 5.59114 14.6584C3.61944 11.6149 2.39242 8.14961 2.00947 4.54345C1.98032 4.22082 2.01866 3.89567 2.12205 3.58868C2.22545 3.28168 2.39164 2.99958 2.61003 2.76034C2.82842 2.52109 3.09424 2.32994 3.39056 2.19906C3.68688 2.06817 4.0072 2.00042 4.33114 2.00011H7.83114C8.39733 1.99454 8.94623 2.19504 9.37552 2.56423C9.80482 2.93343 10.0852 3.44613 10.1645 4.00678C10.3122 5.12686 10.5862 6.22663 10.9811 7.28511C11.1381 7.70269 11.1721 8.15651 11.079 8.59281C10.986 9.0291 10.7698 9.42958 10.4561 9.74678L8.97447 11.2284C10.6353 14.1493 13.0537 16.5676 15.9745 18.2284L17.4561 16.7468C17.7733 16.4331 18.1738 16.2169 18.6101 16.1239C19.0464 16.0308 19.5002 16.0648 19.9178 16.2218C20.9763 16.6168 22.0761 16.8907 23.1961 17.0384C23.7629 17.1184 24.2804 17.4039 24.6504 17.8405C25.0204 18.2772 25.217 18.8346 25.2028 19.4068Z" stroke="black" stroke-width="2" stroke-linecap="round" stroke-linejoin="round"/>
</svg>
