<svg width="25" height="25" viewBox="0 0 25 25" fill="none" xmlns="http://www.w3.org/2000/svg">
<mask id="path-1-inside-1_3279_4026" fill="white">
<path d="M4.25 12.7063V20.7063C4.25 21.2367 4.46071 21.7454 4.83579 22.1205C5.21086 22.4956 5.71957 22.7063 6.25 22.7063H18.25C18.7804 22.7063 19.2891 22.4956 19.6642 22.1205C20.0393 21.7454 20.25 21.2367 20.25 20.7063V12.7063"/>
</mask>
<path d="M5.25 12.7063C5.25 12.154 4.80228 11.7063 4.25 11.7063C3.69772 11.7063 3.25 12.154 3.25 12.7063H5.25ZM4.25 20.7063H3.25H4.25ZM21.25 12.7063C21.25 12.154 20.8023 11.7063 20.25 11.7063C19.6977 11.7063 19.25 12.154 19.25 12.7063H21.25ZM3.25 12.7063V20.7063H5.25V12.7063H3.25ZM3.25 20.7063C3.25 21.5019 3.56607 22.265 4.12868 22.8276L5.54289 21.4134C5.35536 21.2259 5.25 20.9715 5.25 20.7063H3.25ZM4.12868 22.8276C4.69129 23.3902 5.45435 23.7063 6.25 23.7063V21.7063C5.98478 21.7063 5.73043 21.6009 5.54289 21.4134L4.12868 22.8276ZM6.25 23.7063H18.25V21.7063H6.25V23.7063ZM18.25 23.7063C19.0457 23.7063 19.8087 23.3902 20.3713 22.8276L18.9571 21.4134C18.7696 21.6009 18.5152 21.7063 18.25 21.7063V23.7063ZM20.3713 22.8276C20.9339 22.265 21.25 21.5019 21.25 20.7063H19.25C19.25 20.9715 19.1446 21.2259 18.9571 21.4134L20.3713 22.8276ZM21.25 20.7063V12.7063H19.25V20.7063H21.25Z" fill="#898989" mask="url(#path-1-inside-1_3279_4026)"/>
<path d="M16.25 6.7063L12.25 2.7063L8.25 6.7063" stroke="#898989" stroke-linecap="round" stroke-linejoin="round"/>
<path d="M12.25 2.7063V15.7063" stroke="#898989" stroke-linecap="round" stroke-linejoin="round"/>
</svg>
