<svg width="34" height="34" viewBox="0 0 34 34" fill="none" xmlns="http://www.w3.org/2000/svg">
<path d="M4.5 8.66663V26.8958C4.5 27.5865 4.79266 28.2488 5.31359 28.7372C5.83453 29.2256 6.54107 29.5 7.27778 29.5H26.7222C27.4589 29.5 28.1655 29.2256 28.6864 28.7372C29.2073 28.2488 29.5 27.5865 29.5 26.8958V8.66663" stroke="black" stroke-width="2" stroke-linecap="round" stroke-linejoin="round"/>
<path d="M22.5557 8.66663L22.5557 3.80552C22.5557 3.62134 22.4256 3.4447 22.1941 3.31447C21.9625 3.18424 21.6485 3.11107 21.3211 3.11107L12.6791 3.11107C12.3517 3.11107 12.0377 3.18424 11.8061 3.31447C11.5746 3.4447 11.4445 3.62134 11.4445 3.80552L11.4445 8.66663" stroke="black" stroke-width="2" stroke-linecap="round" stroke-linejoin="round"/>
<path d="M4.5 8.66663H29.5" stroke="black" stroke-width="2" stroke-linecap="round" stroke-linejoin="round"/>
</svg>
