<svg width="24" height="24" viewBox="0 0 24 24" fill="none" xmlns="http://www.w3.org/2000/svg">
<circle cx="12" cy="12" r="12" fill="white"/>
<path d="M17.5251 8.13135C17.2059 7.81198 16.8269 7.55863 16.4097 7.38578C15.9926 7.21293 15.5454 7.12396 15.0939 7.12396C14.6423 7.12396 14.1952 7.21293 13.778 7.38578C13.3609 7.55863 12.9819 7.81198 12.6626 8.13135L12.0001 8.79385L11.3376 8.13135C10.6928 7.48655 9.81828 7.1243 8.90638 7.1243C7.99449 7.1243 7.11994 7.48655 6.47514 8.13135C5.83033 8.77616 5.46808 9.65071 5.46808 10.5626C5.46808 11.4745 5.83033 12.349 6.47514 12.9939L7.13763 13.6564L12.0001 18.5189L16.8626 13.6564L17.5251 12.9939C17.8445 12.6746 18.0979 12.2956 18.2707 11.8785C18.4436 11.4613 18.5325 11.0142 18.5325 10.5626C18.5325 10.111 18.4436 9.66392 18.2707 9.24676C18.0979 8.82959 17.8445 8.45058 17.5251 8.13135Z" fill="#161616"/>
</svg>
