<svg width="13" height="12" viewBox="0 0 13 12" fill="none" xmlns="http://www.w3.org/2000/svg">
<path fill-rule="evenodd" clip-rule="evenodd" d="M3.16667 0C4.40923 0 5.45329 0.849848 5.74932 2H11.1667V3.33333H5.74932C5.45329 4.48348 4.40923 5.33333 3.16667 5.33333C1.69391 5.33333 0.5 4.13943 0.5 2.66667C0.5 1.19391 1.69391 0 3.16667 0ZM3.16667 4C3.90305 4 4.5 3.40305 4.5 2.66667C4.5 1.93029 3.90305 1.33333 3.16667 1.33333C2.43029 1.33333 1.83333 1.93029 1.83333 2.66667C1.83333 3.40305 2.43029 4 3.16667 4Z" fill="black"/>
<path fill-rule="evenodd" clip-rule="evenodd" d="M9.83333 11.3333C8.59077 11.3333 7.54671 10.4835 7.25068 9.33333H1.83333V8H7.25068C7.54671 6.84985 8.59077 6 9.83333 6C11.3061 6 12.5 7.19391 12.5 8.66667C12.5 10.1394 11.3061 11.3333 9.83333 11.3333ZM9.83333 10C10.5697 10 11.1667 9.40305 11.1667 8.66667C11.1667 7.93029 10.5697 7.33333 9.83333 7.33333C9.09695 7.33333 8.5 7.93029 8.5 8.66667C8.5 9.40305 9.09695 10 9.83333 10Z" fill="black"/>
</svg>
