<svg width="24" height="24" viewBox="0 0 24 24" fill="none" xmlns="http://www.w3.org/2000/svg">
<circle cx="12" cy="12" r="12" fill="white"/>
<path d="M13.0162 8.48491L13.0163 8.48482C13.2891 8.21191 13.613 7.99541 13.9694 7.8477C14.3259 7.69999 14.708 7.62396 15.0939 7.62396C15.4798 7.62396 15.8619 7.69999 16.2183 7.8477C16.5748 7.99541 16.8987 8.21191 17.1715 8.48482L17.5251 8.13135L17.1717 8.48499C17.4446 8.75778 17.6611 9.08167 17.8088 9.43815C17.9565 9.79464 18.0325 10.1767 18.0325 10.5626C18.0325 10.9485 17.9565 11.3306 17.8088 11.6871C17.6611 12.0435 17.4446 12.3674 17.1717 12.6402L17.1716 12.6403L16.5091 13.3028L12.0001 17.8117L7.49119 13.3028L6.82869 12.6403C6.27765 12.0893 5.96808 11.3419 5.96808 10.5626C5.96808 9.78332 6.27765 9.03595 6.82869 8.48491C7.37973 7.93387 8.1271 7.6243 8.90638 7.6243C9.68567 7.6243 10.433 7.93387 10.9841 8.48491L11.6466 9.14741C11.8418 9.34267 12.1584 9.34267 12.3537 9.14741L13.0162 8.48491Z" stroke="#898989" stroke-linecap="round" stroke-linejoin="round"/>
</svg>
