<svg width="24" height="24" viewBox="0 0 24 24" fill="none" xmlns="http://www.w3.org/2000/svg">
<mask id="path-1-inside-1_2215_14693" fill="white">
<path d="M4 12V20C4 20.5304 4.21071 21.0391 4.58579 21.4142C4.96086 21.7893 5.46957 22 6 22H18C18.5304 22 19.0391 21.7893 19.4142 21.4142C19.7893 21.0391 20 20.5304 20 20V12"/>
</mask>
<path d="M5 12C5 11.4477 4.55228 11 4 11C3.44772 11 3 11.4477 3 12H5ZM4 20H3H4ZM21 12C21 11.4477 20.5523 11 20 11C19.4477 11 19 11.4477 19 12H21ZM3 12V20H5V12H3ZM3 20C3 20.7956 3.31607 21.5587 3.87868 22.1213L5.29289 20.7071C5.10536 20.5196 5 20.2652 5 20H3ZM3.87868 22.1213C4.44129 22.6839 5.20435 23 6 23V21C5.73478 21 5.48043 20.8946 5.29289 20.7071L3.87868 22.1213ZM6 23H18V21H6V23ZM18 23C18.7957 23 19.5587 22.6839 20.1213 22.1213L18.7071 20.7071C18.5196 20.8946 18.2652 21 18 21V23ZM20.1213 22.1213C20.6839 21.5587 21 20.7957 21 20H19C19 20.2652 18.8946 20.5196 18.7071 20.7071L20.1213 22.1213ZM21 20V12H19V20H21Z" fill="#898989" mask="url(#path-1-inside-1_2215_14693)"/>
<path d="M16 6L12 2L8 6" stroke="#898989" stroke-linecap="round" stroke-linejoin="round"/>
<path d="M12 2V15" stroke="#898989" stroke-linecap="round" stroke-linejoin="round"/>
</svg>
