<svg width="32" height="32" viewBox="0 0 32 32" fill="none" xmlns="http://www.w3.org/2000/svg">
<g clip-path="url(#clip0_2617_18712)">
<path d="M28.7591 8.80993L19.1381 3.49175C18.9961 3.41324 18.8366 3.37207 18.6745 3.37207C18.5124 3.37207 18.3529 3.41324 18.2109 3.49175L8.58986 8.80993C8.43902 8.8934 8.31323 9.01604 8.22562 9.16503C8.13801 9.31402 8.0918 9.48391 8.0918 9.65698C8.0918 9.83004 8.13801 9.99993 8.22562 10.1489C8.31323 10.2979 8.43902 10.4205 8.58986 10.504L17.7124 15.5469V25.9099L14.7913 24.2958L13.864 25.9898L18.2109 28.3924C18.3529 28.4711 18.5124 28.5123 18.6745 28.5123C18.8366 28.5123 18.9961 28.4711 19.1381 28.3924L28.7591 23.0743C28.91 22.9908 29.0359 22.8682 29.1236 22.7192C29.2113 22.5702 29.2575 22.4003 29.2576 22.2272V9.65698C29.2575 9.48387 29.2113 9.31395 29.1236 9.16496C29.0359 9.01596 28.91 8.89335 28.7591 8.80993ZM18.6745 5.44266L26.2989 9.65698L18.6745 13.8713L11.05 9.65698L18.6745 5.44266ZM27.3334 21.6555L19.6366 25.91V15.5469L27.3334 11.2924V21.6555Z" fill="black"/>
<path d="M2.31883 15.9421L10.0156 15.9421V14.0083H2.31883V15.9421Z" fill="black"/>
<path d="M4.24266 23.6777H11.9395V21.7438H4.24266V23.6777Z" fill="black"/>
<path d="M6.16649 19.8099H13.8633V17.8761H6.16649V19.8099Z" fill="black"/>
</g>
<defs>
<clipPath id="clip0_2617_18712">
<rect width="30.7872" height="30.9421" fill="white" transform="translate(0.394531 0.471069)"/>
</clipPath>
</defs>
</svg>
