<svg width="32" height="32" viewBox="0 0 32 32" fill="none" xmlns="http://www.w3.org/2000/svg">
<g clip-path="url(#clip0_2617_18681)">
<path d="M25.4084 10.1405H22.7513C23.3776 9.21029 23.6204 8.07224 23.4289 6.96574C23.2374 5.85923 22.6263 4.8705 21.7243 4.20751C20.8223 3.54452 19.6996 3.25895 18.5923 3.41085C17.4851 3.56275 16.4796 4.14029 15.7874 5.022C15.0936 4.14465 14.089 3.57111 12.984 3.42148C11.8789 3.27184 10.7591 3.55773 9.85903 4.21926C8.95898 4.8808 8.34852 5.86667 8.15547 6.97041C7.96243 8.07415 8.20179 9.21015 8.82342 10.1405H6.16639C5.65625 10.1411 5.16719 10.3451 4.80648 10.7076C4.44576 11.0702 4.24282 11.5617 4.24219 12.0744V15.9422C4.24282 16.4549 4.44576 16.9464 4.80648 17.3089C5.16719 17.6714 5.65625 17.8754 6.16639 17.876V27.5455C6.16702 28.0582 6.36995 28.5497 6.73067 28.9122C7.09139 29.2748 7.58045 29.4787 8.09058 29.4793H23.4842C23.9943 29.4787 24.4834 29.2748 24.8441 28.9122C25.2048 28.5497 25.4077 28.0582 25.4084 27.5455V17.876C25.9185 17.8754 26.4076 17.6714 26.7683 17.3089C27.129 16.9464 27.3319 16.4549 27.3326 15.9422V12.0744C27.3319 11.5617 27.129 11.0702 26.7683 10.7076C26.4076 10.3451 25.9185 10.1411 25.4084 10.1405ZM16.7495 7.72315C16.7495 7.24504 16.8905 6.77767 17.1548 6.38014C17.4191 5.98261 17.7948 5.67277 18.2343 5.4898C18.6738 5.30684 19.1574 5.25897 19.624 5.35224C20.0905 5.44552 20.5191 5.67575 20.8555 6.01382C21.1919 6.35189 21.421 6.78262 21.5138 7.25155C21.6066 7.72047 21.5589 8.20652 21.3769 8.64823C21.1948 9.08994 20.8866 9.46748 20.491 9.73311C20.0955 9.99873 19.6304 10.1405 19.1547 10.1405H16.7495V7.72315ZM12.42 5.30579C13.0577 5.30656 13.669 5.56149 14.12 6.01467C14.5709 6.46784 14.8245 7.08226 14.8253 7.72315V10.1405H12.42C11.7821 10.1405 11.1703 9.88582 10.7193 9.43248C10.2682 8.97913 10.0148 8.36427 10.0148 7.72315C10.0148 7.08203 10.2682 6.46716 10.7193 6.01382C11.1703 5.56048 11.7821 5.30579 12.42 5.30579ZM6.16639 12.0744H14.8253V15.9422H6.16639V12.0744ZM8.09058 17.876H14.8253V27.5455H8.09058V17.876ZM23.4853 27.5455H16.7495V17.876H23.4842L23.4853 27.5455ZM16.7495 15.9422V12.0744H25.4084L25.4095 15.9422H16.7495Z" fill="black"/>
</g>
<defs>
<clipPath id="clip0_2617_18681">
<rect width="30.7872" height="30.9421" fill="white" transform="translate(0.393555 0.471069)"/>
</clipPath>
</defs>
</svg>
