<svg width="28" height="28" viewBox="0 0 28 28" fill="none" xmlns="http://www.w3.org/2000/svg">
<path d="M8.55508 28C8.55508 27.7667 8.55508 24.9667 8.71063 24.0333C10.344 24.9667 12.2106 25.5111 14.3106 25.5111C16.4106 25.5111 18.4329 24.9667 20.0662 23.8778V28H20.2217H20.3773C20.6106 28 21.1551 28 21.4662 27.4556L21.6217 27.2222C23.3329 23.1 24.4217 19.9889 24.9662 17.8889C25.3551 16.4111 25.5106 15.3222 25.5106 14C25.5106 12.6778 25.5106 11.2 25.1217 10.0333C24.7329 8.01111 23.4884 4.97778 21.7773 0.933333L21.6217 0.7C21.2329 0 20.2995 0 20.2995 0H20.2217V3.96667C18.5106 2.87778 16.644 2.33333 14.4662 2.33333C12.2884 2.33333 10.1884 2.95556 8.55508 3.96667V0H8.32174C8.32174 0 7.38841 0 7.15508 0.544444L6.99952 0.933333C5.28841 4.9 4.19952 8.01111 3.65508 10.0333C3.26619 11.2 2.95508 12.4444 2.95508 13.7667C2.95508 15.2444 3.18841 16.7222 3.73286 18.0444C4.12175 19.3667 6.3773 26.4444 6.68841 27.1444C6.99952 27.8444 7.7773 28 8.16619 28H8.32174H8.4773H8.55508ZM20.6106 0.544444C20.7662 0.544444 20.9995 0.544444 21.1551 0.777778L21.3106 1.01111C22.3995 3.42222 23.1773 5.52222 23.7217 7.31111C22.944 6.14444 21.8551 5.05556 20.6884 4.12222C20.6106 4.12222 20.6106 0.544444 20.6106 0.544444ZM7.38841 1.16667L7.54397 0.933333C7.54397 0.777778 7.7773 0.7 8.08841 0.7V4.43333C6.76619 5.21111 5.6773 6.3 4.89952 7.46667C5.36619 5.75556 6.29952 3.57778 7.38841 1.16667ZM8.08841 27.3V27.4556C7.85508 27.4556 7.31063 27.4556 7.15508 27.0667C6.99952 26.6778 5.83286 22.9444 5.05508 20.3778C5.83286 21.5444 7.0773 22.7889 8.39952 23.5667C8.16619 24.6556 8.16619 27.0667 8.08841 27.3ZM3.42174 13.8444C3.42174 7.85556 8.24397 2.8 14.2329 2.8C20.2217 2.8 25.044 7.7 25.044 13.8444C25.044 19.9889 20.2217 24.9667 14.1551 24.9667C8.08841 24.9667 3.42174 19.9889 3.42174 13.8444ZM21.2329 26.9111L21.1551 27.2222C21.1551 27.3778 20.9217 27.4556 20.6106 27.4556V23.4889C21.7773 22.7111 23.0217 21.4667 23.7995 20.1444C23.2551 22.0111 22.3217 24.2667 21.2329 26.9111ZM14.3106 4.27778C9.09952 4.27778 4.74397 8.55556 4.74397 13.8444C4.74397 19.1333 9.02174 23.4111 14.3106 23.4111C19.5995 23.4111 23.8773 19.1333 23.8773 13.8444C23.8773 8.55556 19.5217 4.27778 14.3106 4.27778ZM14.3106 23.1C9.41063 23.1 5.21063 18.9778 5.21063 14C5.21063 8.94444 9.1773 4.9 14.3106 4.9C19.2106 4.9 23.4106 9.02222 23.4106 14C23.4106 18.9778 19.2884 23.1 14.3106 23.1Z" fill="#161616"/>
</svg>
