<svg width="28" height="28" viewBox="0 0 28 28" fill="none" xmlns="http://www.w3.org/2000/svg">
<path d="M13.8444 4.19998C15.7111 4.19998 17.0333 4.74442 17.0333 4.74442L17.4222 4.19998C15.9444 3.65553 14 3.65553 13.8444 3.65553C13.6889 3.65553 11.7444 3.81109 10.2667 4.19998L10.5 4.74442C10.6556 4.74442 11.9778 4.19998 13.8444 4.19998V4.19998ZM23.9556 14.0778L24.5778 14.2333C24.7333 12.7555 24.0333 10.9666 24.0333 10.8111C24.0333 10.6555 23.2556 8.86664 22.3222 7.77776L21.7778 8.16664C21.7778 8.16664 22.7111 9.25553 23.2556 10.9666C23.9556 12.6778 23.9556 14.0778 23.9556 14.0778ZM5.28889 7.77776C4.35556 8.86664 3.73333 10.6555 3.57778 10.8111C3.57778 10.9666 3.03333 12.7555 3.03333 14.2333L3.57778 14.0778C3.57778 14.0778 3.57778 12.6 4.12222 10.8889C4.74444 9.33331 5.67778 8.08887 5.67778 8.08887L5.28889 7.77776ZM0 18.2L2.33333 18.8222C2.33333 18.8222 2.17778 22.4 5.6 24.7333C9.17778 27.0666 12.4444 25.9 12.4444 25.9L13.9222 27.8444L15.4 25.9C15.4 25.9 18.8222 27.2222 22.2444 24.7333C25.6667 22.4 25.5111 18.6666 25.5111 18.6666L27.8444 18.0444L26.5222 16.1778C26.5222 16.1778 28.8556 13.5333 27.4556 9.48887C26.1333 5.5222 22.7111 4.58887 22.7111 4.58887V2.48887L20.3778 3.26664C20.3778 3.26664 18.4333 0.388866 14.0778 0.388866C9.56667 0.233311 7.46667 3.18887 7.46667 3.18887L5.28889 2.48887V4.8222C5.28889 4.8222 1.71111 5.75553 0.544444 9.7222C-0.777778 13.6889 1.47778 16.4111 1.47778 16.4111L0 18.2ZM20.1444 5.67776C24.7333 4.35553 26.7556 9.79998 26.7556 9.87776C26.7556 9.95553 28.4667 15.5555 23.8778 17.1111C26.6778 20.9222 21.9333 24.5 21.7778 24.6555C21.6222 24.8111 16.6444 27.9222 13.7667 24.2666C10.8889 28.0778 5.98889 24.6555 5.83333 24.6555C5.67778 24.6555 0.933334 21 3.73333 17.1111C-0.855555 15.6333 0.855556 9.87776 0.933333 9.87776C0.933333 9.7222 3.03333 4.19998 7.62222 5.67776C7.62222 0.933311 13.5333 0.777755 13.8444 0.777755C14 0.6222 19.9889 1.08887 20.1444 5.67776V5.67776ZM19.9111 21.8555C18.4333 22.9444 17.0333 23.3333 17.0333 23.3333L17.1889 23.9555C18.6667 23.5666 20.2222 22.4778 20.3778 22.4778C20.5333 22.3222 22.0889 21.1555 22.8667 19.9889L22.3222 19.7555C22.1667 19.6 21.2333 20.6889 19.9111 21.8555V21.8555ZM18.9778 20.6889L19.1333 18.0444C19.6778 17.6555 19.9111 16.9555 20.2222 16.3333C20.6111 15.5555 20.7667 14.6222 20.7667 13.6889C20.7667 13.5333 20.7667 13.4555 20.7667 13.1444L22.2444 11.0444L19.5222 10.1111C19.2889 9.7222 18.9778 9.33331 18.5889 9.0222C17.9667 8.63331 17.1111 8.08887 16.4889 7.85553C16.2556 7.69998 15.8667 7.6222 15.4 7.6222L13.8444 5.67776L12.1333 7.6222C11.9 7.77776 11.5889 7.77776 11.2 7.85553C10.2667 8.24442 9.64444 8.63331 9.1 9.33331C8.71111 9.56664 8.47778 9.95553 8.16667 10.4222L5.67778 11.3555L7.15556 13.4555V14C7.15556 14.9333 7.31111 15.7111 7.7 16.6444C7.93333 17.1889 8.24444 17.7333 8.78889 18.2L8.94444 20.6889L11.4333 19.9111C12.2111 20.3 13.1444 20.3 14.0778 20.3C14.8556 20.3 15.7889 20.1444 16.5667 19.9111L18.9778 20.6889ZM9.48889 18.2C8.32222 17.1111 7.62222 15.5555 7.62222 14C7.62222 12.4444 8.24444 10.8111 9.48889 9.79998C10.6556 8.71109 12.1333 8.08887 13.8444 8.08887C15.5556 8.08887 17.0333 8.71109 18.2 9.79998C19.3667 10.8889 20.0667 12.4444 20.0667 14C20.0667 15.5555 19.4444 17.1889 18.2 18.2C17.0333 19.2889 15.5556 19.9111 13.8444 19.9111C12.1333 19.9111 10.6556 19.2111 9.48889 18.2V18.2ZM5.67778 19.6L5.05556 19.9889C5.83333 21.1555 7.38889 22.3222 7.54444 22.3222C7.7 22.4778 9.25556 23.4111 10.7333 23.8L10.8889 23.1778C10.8889 23.1778 9.41111 22.7889 8.01111 21.7C6.45556 20.6889 5.67778 19.6 5.67778 19.6V19.6ZM13.8444 13.1444C14.2333 13.1444 14.6222 13.5333 14.6222 13.9222C14.6222 14.3111 14.2333 14.7 13.8444 14.7C13.4556 14.7 13.0667 14.3111 13.0667 13.9222C13.0667 13.5333 13.4556 13.1444 13.8444 13.1444Z" fill="#161616"/>
</svg>
