<svg width="28" height="28" viewBox="0 0 28 28" fill="none" xmlns="http://www.w3.org/2000/svg">
<g clip-path="url(#clip0_2720_20055)">
<path d="M19.2885 6.53335C19.2107 6.3778 19.133 6.22224 19.0552 6.06669C19.133 5.91113 19.2107 5.75557 19.2107 5.52224C19.2885 5.13335 19.0552 2.41113 19.0552 1.78891V1.71113H18.9774V0.155575L18.8996 0.0777968C18.7441 1.89841e-05 18.5885 1.89841e-05 18.433 1.89841e-05L18.3552 -0.0777588C18.3552 1.89841e-05 18.1996 1.89841e-05 18.1996 1.89841e-05H16.5663C16.4885 1.89841e-05 16.2552 0.0777967 16.2552 0.31113V0.466686H14.0774H11.8996C11.8996 0.388908 11.8996 0.388908 11.8996 0.31113C11.7441 0.0777967 11.5107 1.89841e-05 11.5107 1.89841e-05H9.79963C9.72185 1.89841e-05 9.64407 1.89841e-05 9.48852 0.0777968V0.155575C9.41074 0.0777968 9.33296 0.0777968 9.09963 0.155575L9.02185 0.233352V1.78891H8.94407V1.94446C8.86629 2.48891 8.63296 5.21113 8.78852 5.6778C8.86629 5.83335 8.86629 6.06669 8.94407 6.22224C8.86629 6.30002 8.78852 6.45557 8.71074 6.68891C8.55518 7.62224 8.71074 17.8111 8.71074 18.2V18.2778C8.78852 18.5889 8.86629 18.6667 8.86629 18.7445C8.78851 18.8222 8.71074 18.9778 8.71074 19.1334C8.71074 19.3667 8.86629 19.6 9.09963 19.6778V23.5667C9.09963 23.6445 9.09963 23.7222 9.1774 23.8778L9.25518 23.9556C9.1774 24.0333 9.09963 24.1889 9.09963 24.3445C8.94407 24.4222 8.71074 24.6556 8.71074 24.8889C8.71074 25.1222 8.86629 25.3556 9.09963 25.4333C9.1774 26.3667 9.25518 27.7667 9.25518 27.9222C9.25518 28.0778 9.41074 28.3111 9.72185 28.3111H11.6663V28H12.3663H13.9218C13.9218 28 14.8552 28 15.4774 28H16.1774V28.3111H18.1218C18.433 28.3111 18.5885 28.0778 18.5885 27.9222C18.5885 27.8445 18.6663 26.4445 18.7441 25.4333C18.9774 25.3556 19.133 25.1222 19.133 24.8889C19.133 24.6556 18.9774 24.4222 18.7441 24.3445C18.7441 24.1889 18.6663 24.0333 18.5885 23.9556C18.6663 23.9556 18.6663 23.8778 18.6663 23.8778C18.7441 23.7222 18.7441 23.5667 18.7441 23.5667V19.6778C18.8996 19.6 19.133 19.3667 19.133 19.1334C19.133 18.9778 19.0552 18.9 18.9774 18.7445C19.0552 18.6667 19.0552 18.5889 19.133 18.2778V18.2C19.2885 17.5778 19.3663 7.46669 19.2885 6.53335ZM18.7441 24.6556C18.7441 24.5778 18.7441 24.5778 18.7441 24.5V24.5778C18.8218 24.5778 18.8218 24.5778 18.7441 24.6556ZM9.72185 23.4111C9.56629 23.3334 9.56629 23.3334 9.56629 23.3334V18.8222C9.64407 18.9 9.72185 18.9 9.72185 18.9V23.3334V23.4111ZM10.1107 19.0556C10.5774 19.2111 10.9663 19.3667 11.2774 19.5222L11.3552 23.3334C11.3552 23.4111 11.3552 23.4111 11.2774 23.4111C11.1218 23.4111 10.1885 23.4111 10.033 23.4889C10.033 23.4889 10.033 23.4889 10.033 23.4111V19.0556H10.1107ZM11.8218 21.7778C11.8218 21.7778 11.6663 21.7 11.6663 21.5445V19.6C12.9885 20.0667 13.9218 20.1445 13.9996 20.2222C14.1552 20.1445 15.0107 20.0667 16.333 19.6V21.5445C16.333 21.7 16.2552 21.7778 16.1774 21.7778H13.9996H11.8218ZM16.6441 21.5445L16.7218 19.4445L17.8885 18.9778V23.3334V23.4111C17.8107 23.4111 16.8774 23.4111 16.6441 23.4111C16.5663 23.4111 16.5663 23.3334 16.5663 23.3334L16.6441 21.5445ZM13.9996 19.8334C13.6107 19.7556 11.8996 19.3667 9.25518 18.2778C9.1774 18.2 9.1774 18.1222 9.09963 17.9667C9.02185 14.3111 9.02185 7.23335 9.09963 6.53335C9.1774 6.22224 9.41074 6.22224 9.41074 6.22224H11.433C11.7441 6.22224 11.8996 6.3778 12.0552 6.53335C12.3663 7.23335 12.7552 7.70002 13.2996 8.01113L13.9218 8.24446L14.5441 8.01113C15.0107 7.7778 15.4774 7.23335 15.7885 6.53335C15.9441 6.45557 16.1774 6.22224 16.4107 6.22224H18.433C18.5107 6.22224 18.7441 6.22224 18.7441 6.53335C18.8218 7.23335 18.8218 14.3111 18.7441 17.9667C18.6663 18.0445 18.6663 18.2 18.6663 18.2778C16.0996 19.4445 14.3885 19.8334 13.9996 19.8334ZM11.7441 1.94446L13.9996 1.86669H16.2552V1.94446C16.1774 2.02224 16.0996 2.1778 16.0996 2.41113V2.56669V3.11113H13.9996H11.8996C11.8996 2.95557 11.8996 2.72224 11.8996 2.56669C11.8996 2.48891 11.8996 2.41113 11.8996 2.41113C11.8996 2.1778 11.8996 2.02224 11.7441 1.94446ZM16.1774 1.55557H13.9996H11.8218C11.8218 1.4778 11.8218 1.40002 11.8218 1.32224H13.9996H16.1774V1.55557ZM13.9996 3.50002H16.0996C16.0996 4.82224 15.9441 5.75557 15.633 6.45557L15.5552 6.53335C15.2441 7.23335 14.8552 7.62224 14.5441 7.7778L13.9996 7.93335L13.533 7.7778C13.1441 7.62224 12.833 7.23335 12.4441 6.45557C12.0552 5.6778 12.4441 6.45557 12.3663 6.3778C12.0552 5.6778 11.8996 4.82224 11.8996 3.42224L13.9996 3.50002ZM18.5107 5.98891C18.5107 5.98891 16.9552 5.98891 16.4885 5.98891C16.333 5.98891 16.1774 6.06669 16.0218 6.06669C16.333 5.13335 16.4107 3.96669 16.333 2.48891C16.333 2.41113 16.333 2.33335 16.333 2.33335C16.333 2.1778 16.4107 2.10002 16.4885 2.10002H18.6663C18.7441 3.34446 18.8996 5.28891 18.8218 5.52224C18.7441 5.91113 18.7441 5.98891 18.5107 5.98891ZM18.7441 0.31113V1.78891H18.5885V0.31113C18.5885 0.31113 18.5885 0.233352 18.7441 0.31113ZM16.4885 0.388908C16.4885 0.31113 16.4885 0.31113 16.4885 0.388908L18.3552 0.31113V1.71113H16.4885C16.4885 1.08891 16.4885 0.466686 16.4885 0.388908ZM13.9996 0.855575H16.2552V1.16669H14.0774H11.8996C11.8996 1.08891 11.8996 1.01113 11.8996 0.855575H13.9996ZM11.5107 0.31113V1.71113H9.64407V0.388908L11.5107 0.31113ZM9.25518 0.31113C9.33296 0.233352 9.41074 0.233352 9.41074 0.31113V1.78891H9.25518V0.31113ZM9.09963 5.52224C9.02185 5.28891 9.1774 3.34446 9.25518 2.10002H11.3552C11.433 2.10002 11.5107 2.10002 11.5107 2.33335V2.48891C11.433 3.96669 11.5107 5.21113 11.8218 6.06669C11.6663 5.98891 11.5107 5.98891 11.3552 5.98891C10.8885 5.98891 9.33296 5.98891 9.33296 5.98891C9.25518 5.98891 9.25518 5.91113 9.09963 5.52224ZM9.25518 24.5V24.5778C9.25518 24.5778 9.25518 24.5778 9.25518 24.5ZM11.433 27.5333H9.8774C9.79963 27.5333 9.79963 27.5333 9.79963 27.4556C9.79963 27.3778 9.64407 24.4222 9.64407 24.1111C9.64407 23.8 9.95518 23.7222 10.1107 23.7222H10.1885H10.2663H11.433H11.5107V26.9111C11.5107 27.0667 11.5107 27.2222 11.5885 27.3L11.433 27.5333ZM14.0774 27.2222C13.9996 27.2222 13.9996 27.2222 14.0774 27.2222C13.2218 27.2222 11.9774 27.2222 11.8218 27.2222C11.7441 27.1445 11.7441 27.0667 11.7441 26.9111V23.3334L11.6663 22.4C11.6663 22.2445 11.7441 22.1667 11.7441 22.1667V22.0889V22.1667H13.9996H16.2552C16.333 22.1667 16.333 22.2445 16.333 22.4L16.2552 23.3334V26.9111C16.2552 27.0667 16.2552 27.2222 16.1774 27.2222C16.0996 27.2222 14.8552 27.2222 14.0774 27.2222ZM18.2774 27.4556C18.2774 27.4556 18.2774 27.5333 18.1996 27.5333H16.6441V27.3C16.7218 27.2222 16.7218 27.0667 16.7218 26.9111V23.7222H16.7996H17.9663H18.0441H18.1218V23.8C18.1996 23.8 18.5885 23.8 18.5885 24.1111C18.5107 24.4222 18.2774 27.4556 18.2774 27.4556ZM18.2774 23.4111C18.2774 23.3334 18.2774 23.3334 18.2774 23.3334V18.9C18.3552 18.9 18.433 18.8222 18.433 18.8222V23.3334C18.5107 23.3334 18.433 23.4111 18.2774 23.4111Z" fill="#161616"/>
</g>
<defs>
<clipPath id="clip0_2720_20055">
<rect width="28" height="28" fill="white"/>
</clipPath>
</defs>
</svg>
