<svg width="28" height="28" viewBox="0 0 28 28" fill="none" xmlns="http://www.w3.org/2000/svg">
<path d="M14 0C6.14444 0 0 6.14444 0 14C0 21.8556 6.14444 28 14 28C21.7 28 28 21.7 28 14C28 6.3 21.7 0 14 0ZM27.4556 12.5222C27.3 12.5222 27.3 12.6778 27.3 12.6778C27.0667 12.8333 26.7556 12.8333 26.5222 12.8333C26.3667 12.8333 26.3667 12.8333 26.3667 12.9889V13.1444V12.9889C26.2111 11.5111 25.8222 10.0333 25.2 8.71111C24.8111 7.93333 24.4222 7.23333 23.8778 6.68889C23.8778 6.68889 23.8778 6.68889 24.0333 6.45556C24.1889 6.22222 24.4222 6.06667 24.7333 5.91111H24.8889C26.2889 7.85556 27.2222 10.1111 27.4556 12.5222ZM25.9778 14.1556C25.8222 21.3889 19.9889 26.0556 14 26.0556C7.31111 25.9 2.02222 20.3 2.25556 13.7667C2.41111 7.7 7.31111 2.1 14.2333 2.1C21.2333 2.02222 25.9778 7.85556 25.9778 14.1556ZM11.0444 26.8333C11.2 26.6778 11.2 26.4444 11.2 26.2889C11.3556 26.0556 11.3556 25.9 10.9667 25.7444C10.8111 25.7444 10.8111 25.7444 10.8111 25.5889C10.9667 25.4333 10.9667 25.5889 10.9667 25.5889C14.1556 26.3667 17.1111 25.9778 20.0667 24.4222C21.1556 23.8778 22.0889 23.1 22.8667 22.1667L23.0222 22.0111L22.8667 22.1667C22.7111 22.3222 22.7111 22.7111 22.8667 22.8667C23.0222 23.0222 23.0222 23.2556 23.1 23.4111V23.5667C20.6889 25.9778 17.3444 27.3 13.9222 27.3C12.8333 27.3 11.9 27.1444 10.9667 27.0667C11.0444 26.9111 11.0444 26.9111 11.0444 26.8333ZM14 0.544444C16.0222 0.544444 17.9667 1.08889 19.7556 1.86667C19.7556 2.02222 19.9111 2.02222 19.9111 2.02222C20.0667 2.17778 19.9111 2.25556 19.7556 2.41111C19.4444 2.56667 19.4444 2.8 19.3667 2.95556C17.6556 2.17778 15.7889 1.78889 13.6111 1.78889C10.8111 1.94444 8.24444 2.95556 6.14444 4.82222C3.73333 6.92222 2.41111 9.64444 2.17778 12.8333C1.94444 15.4778 2.41111 17.7333 3.81111 20.0667C3.88889 20.3 3.88889 20.3778 3.57778 20.3778C3.34444 20.5333 3.18889 20.7667 2.8 20.7667C2.64444 20.7667 2.64444 20.7667 2.64444 20.7667C1.47778 18.8222 0.777778 16.4111 0.777778 13.8444C0.7 6.37778 6.53333 0.544444 14 0.544444Z" fill="#161616"/>
</svg>
