<svg width="28" height="28" viewBox="0 0 28 28" fill="none" xmlns="http://www.w3.org/2000/svg">
<path d="M12.2889 14C12.2889 13.0667 13.0667 12.2889 14 12.2889C14.9333 12.2889 15.7111 13.0667 15.7111 14C15.7111 14.9333 14.9333 15.7111 14 15.7111C13.0667 15.7111 12.2889 14.9333 12.2889 14ZM19.7556 16.0222C19.9889 15.3222 20.1444 14.7 20.1444 14C20.1444 13.3 19.9889 12.6778 19.7556 11.9778L18.6667 12.3667C18.9 13.0667 18.9 13.4556 18.9 14C18.9 14.5444 18.7444 15.0889 18.6667 15.6333L19.7556 16.0222ZM13.0667 19.8333L13.3 18.7444C12.1333 18.5111 11.2 17.9667 10.3444 17.1111L9.56667 17.8111C10.4222 18.9 11.5889 19.7556 13.0667 19.8333ZM14.7 19.9889C16.3333 19.7556 17.8889 18.8222 18.8222 17.5778L17.8889 16.9556C17.1111 18.1222 15.8667 18.8222 14.3889 19.0556L14.7 19.9889ZM8.55556 20.6889C8.94444 20.6889 9.25556 20.4556 9.25556 19.9889C9.25556 19.5222 9.02222 19.2889 8.55556 19.2889C8.08889 19.2889 7.85556 19.5222 7.85556 19.9889C7.7 20.3778 8.16667 20.6889 8.55556 20.6889ZM17.9667 20.3C17.5778 20.3 17.2667 20.5333 17.2667 21C17.2667 21.4667 17.5 21.7 17.9667 21.7C18.4333 21.7 18.6667 21.4667 18.6667 21.1556C18.6667 20.6889 18.2778 20.3 17.9667 20.3ZM22.0111 13.3C22.4 13.3 22.7111 13.0667 22.7111 12.6C22.7111 12.2111 22.4778 11.9 22.0111 11.9C21.6222 11.9 21.3111 12.1333 21.3111 12.6C21.2333 12.9111 21.6222 13.3 22.0111 13.3ZM28 14C28 21.7 21.7 28 14 28C6.3 28 0 21.7 0 14C0 6.3 6.3 0 14 0C21.7 0 28 6.3 28 14ZM10.8111 13.7667L6.14444 19.2111C7.85556 21.7778 10.8111 23.3333 14.1556 23.3333C19.3667 23.3333 23.7222 19.0556 23.7222 13.7667C23.7222 12.1333 23.3333 10.9667 22.7889 9.64444L15.4778 10.7333L15.0889 10.3444L12.1333 11.2778L10.5 13.1444L10.8111 13.7667ZM26.8333 14.1556C26.8333 12.0556 26.2889 10.1889 25.5111 8.4L23.4889 9.56667C24.1889 10.8889 24.5778 12.5222 24.5778 14.0778C24.5778 19.8333 19.9111 24.5778 14.0778 24.5778C10.5 24.5778 7.15556 22.8667 5.28889 20.0667L3.26667 21.2333C5.67778 24.5778 9.56667 26.9889 14.0778 26.9889C21.0778 26.9111 26.9111 21.0778 26.8333 14.1556Z" fill="#161616"/>
</svg>
