<svg width="28" height="28" viewBox="0 0 28 28" fill="none" xmlns="http://www.w3.org/2000/svg">
<g clip-path="url(#clip0_2720_20063)">
<path d="M25.0128 6.81333C22.8662 4.38667 19.9728 2.98667 16.7062 2.8C14.2795 2.61333 11.9462 3.17333 9.89284 4.38667L7.18618 0C6.34618 0.56 5.50618 1.12 4.66618 1.86667C3.17285 3.26667 2.05285 4.94667 1.30618 6.72L5.50618 8.77333C5.31951 9.05333 5.13285 9.33333 5.03951 9.70667L0.932849 7.65333C-0.000483677 10.2667 -0.280483 13.16 0.279516 15.8667L3.91951 15.4C3.91951 15.7733 3.91951 16.0533 4.01285 16.4267L0.466183 16.8C1.02618 19.04 1.95951 21.0933 3.45285 22.96C3.82618 23.4267 4.29285 23.8933 4.75951 24.2667L6.71951 22.4933C6.81284 22.5867 6.90618 22.68 6.90618 22.7733C6.99951 22.96 7.18618 23.0533 7.37284 23.24L5.50618 25.0133C6.71951 25.9467 7.93284 26.6933 9.33284 27.16L10.1728 25.3867C10.4528 25.5733 10.7328 25.6667 11.0128 25.8533L10.1728 27.5333C11.5728 27.9067 12.9728 28.0933 14.3728 28.0933L14.7462 26.88C14.9328 26.88 15.1195 26.88 15.2128 26.9733C15.4928 26.9733 15.6795 26.9733 15.9595 26.9733C18.9462 26.9733 21.7462 25.9467 23.8928 23.9867C28.9328 19.4133 29.3995 11.76 25.0128 6.81333ZM23.3328 23.1467C21.0928 25.1067 18.1995 26.1333 15.3062 25.9467C12.3195 25.76 9.61284 24.4533 7.65284 22.2133C5.69285 19.9733 4.66618 17.08 4.85285 14.1867C5.03951 11.2 6.34618 8.49333 8.58618 6.53333C10.6395 4.76 13.2528 3.73333 15.9595 3.73333C16.1462 3.73333 16.4262 3.73333 16.7062 3.73333C19.6928 3.92 22.3995 5.22667 24.3595 7.46667C28.3728 12.04 27.9062 19.04 23.3328 23.1467Z" fill="#161616"/>
</g>
<defs>
<clipPath id="clip0_2720_20063">
<rect width="28" height="28" fill="white"/>
</clipPath>
</defs>
</svg>
