<svg width="34" height="28" viewBox="0 0 34 28" fill="none" xmlns="http://www.w3.org/2000/svg">
<path d="M32.4066 7.98689H28.459C27.6328 6.05902 26.0721 5.6 25.1541 5.41639H24.9705C23.4098 5.14098 17.6262 4.77377 16.9836 4.77377H14.8721H14.6885H12.577C11.9344 4.77377 6.24262 4.95738 4.59016 5.41639C3.76393 5.6918 1.92787 6.05902 1.28525 7.98689H0.826229C0.367213 7.98689 0 8.4459 0 8.81312V11.8426C0 12.3016 0.27541 12.6689 0.826229 12.6689H1.74426C2.20328 13.9541 3.02951 15.2393 4.13115 15.9738C5.6918 16.8918 6.97705 17.5344 8.26229 17.5344C8.72131 17.5344 9.18033 17.3508 9.73115 17.259C9.91475 17.0754 10.0066 17.0754 10.0066 17.0754C10.1902 17.0754 10.282 17.259 10.282 17.259C10.5574 17.259 10.741 17.0754 11.1082 16.9836C12.3934 15.6984 13.2197 14.4131 14.7803 14.4131C16.341 14.4131 16.8918 15.5148 17.8098 16.5246L18.2689 16.9836C18.5443 17.259 19.0951 17.259 19.5541 17.259C19.7377 17.4426 19.8295 17.4426 19.8295 17.4426C20.2885 17.6262 20.7475 17.718 21.2984 17.718C22.5836 17.718 23.8689 17.259 25.4295 16.1574C26.7148 15.3311 27.3574 14.0459 27.8164 12.8525H32.1311C32.5902 12.8525 32.9574 12.577 32.9574 12.0262V8.99672C33.2328 8.4459 32.9574 7.98689 32.4066 7.98689ZM24.9705 14.9639C23.0426 16.2492 21.7574 16.5246 20.4721 16.0656C20.4721 16.0656 20.4721 16.0656 20.2885 16.0656C20.2885 15.7902 20.1049 15.423 20.0131 15.1475C19.8295 14.9639 19.7377 14.8721 19.7377 14.6885C18.6361 13.5869 17.6262 12.4852 14.9639 12.4852C12.3934 12.4852 11.1082 13.7705 9.73115 15.0557C9.45574 15.3311 9.45574 15.5148 9.45574 15.9738C9.45574 15.9738 9.45574 15.9738 9.27213 15.9738C7.98689 16.4328 6.60984 16.1574 4.77377 15.0557C2.66229 13.5869 2.11148 10.0984 2.38689 8.99672C2.8459 7.43607 4.13115 6.88525 4.95738 6.79344H5.14098C6.42623 6.33443 11.0164 6.15082 12.7607 6.15082H14.8721H15.0557H17.1672C18.9115 6.15082 23.6852 6.42623 24.7869 6.60984C25.6131 6.88525 26.8984 7.25246 27.3574 8.81312C27.6328 10.0066 27.082 13.6787 24.9705 14.9639ZM31.3049 7.43607H29.377V0.918033C29.377 0.459016 29.8361 0 30.2951 0H30.4787C30.9377 0 31.3967 0.459016 31.3967 0.918033L31.3049 7.43607ZM29.377 13.2197H31.3049V21.6656V21.941C31.1213 25.4295 28.2754 28 24.7869 28C21.7574 28 19.0951 25.8885 18.4525 22.9508C17.1672 22.7672 16.0656 22.4918 14.9639 22.0328C14.6885 21.8492 14.3213 21.2066 14.6885 20.9311C14.8721 20.6557 15.5148 20.2885 15.9738 20.6557C17.0754 21.1148 18.177 21.482 19.4623 21.482C20.7475 21.482 21.8492 21.2066 22.9508 20.6557C23.2262 20.3803 23.8689 20.4721 24.2361 20.9311C24.5115 21.2066 24.4197 21.8492 23.9607 22.2164C23.0426 22.6754 22.0328 23.0426 20.9311 23.1344C21.5738 25.0623 23.318 26.3475 25.2459 26.3475C27.8164 26.3475 29.7443 24.4197 29.8361 22.0328V13.3115H29.377V13.2197Z" fill="#161616"/>
</svg>
