<svg width="28" height="28" viewBox="0 0 28 28" fill="none" xmlns="http://www.w3.org/2000/svg">
<path d="M14 0C6.37778 0 0 6.37778 0 14C0 21.6222 6.37778 28 14 28C21.6222 28 28 21.7 28 14C28 6.37778 21.6222 0 14 0ZM14 27.2222C6.76667 27.2222 0.777778 21.3111 0.777778 14C0.777778 6.68889 6.68889 0.777778 14 0.777778C21.3111 0.777778 27.2222 6.61111 27.2222 14C27.2222 21.3889 21.2333 27.2222 14 27.2222ZM25.9778 14C25.9778 20.6889 20.6111 25.9778 14 25.9778C7.38889 25.9778 2.02222 20.6889 2.02222 14C2.02222 7.31111 7.31111 2.02222 14 2.02222C18.1222 2.02222 21.8556 4.12222 24.0333 7.38889C22.0111 4.97778 18.5889 3.42222 14.7 3.42222C8.4 3.42222 3.34444 7.54444 3.34444 12.7556C3.34444 17.9667 8.4 22.0889 14.7 22.0889C20.6889 22.0889 25.6667 18.2 26.0556 13.4556C25.9778 13.4556 25.9778 13.7667 25.9778 14Z" fill="#161616"/>
</svg>
