<svg width="28" height="28" viewBox="0 0 28 28" fill="none" xmlns="http://www.w3.org/2000/svg">
<g clip-path="url(#clip0_2720_20049)">
<path d="M9.72222 4.51111C9.95556 4.9 9.87778 5.6 9.33333 5.83333C8.78889 6.06667 8.24444 5.98889 8.01111 5.44444C7.77778 4.9 8.01111 4.51111 8.4 4.27778C8.94444 3.96667 9.48889 4.12222 9.72222 4.51111ZM13.4556 25.0444H14.5444V22.0111H13.4556V25.0444ZM12.6778 2.95556L14 6.37778L15.3222 2.87778H14C14 2.95556 12.6778 2.95556 12.6778 2.95556ZM2.8 14.5444H5.83333V13.4556H2.8V14.5444ZM22.0111 14.5444H25.0444V13.4556H22.0111V14.5444ZM19.9889 22.4C19.7556 22.0111 19.2111 21.7 18.6667 22.0111C18.2778 22.2444 17.9667 22.7889 18.2778 23.3333C18.5111 23.7222 19.0556 24.0333 19.6 23.7222C20.1444 23.4889 20.3 22.9444 19.9889 22.4ZM4.66667 9.72222C5.05556 9.95556 5.75556 9.87778 5.98889 9.33333C6.22222 8.78889 6.14444 8.24444 5.6 8.01111C5.21111 7.77778 4.51111 7.85556 4.27778 8.4C3.96667 8.78889 4.12222 9.48889 4.66667 9.72222ZM23.7222 19.6C23.9556 19.2111 23.8778 18.5111 23.3333 18.2778C22.7889 18.0444 22.2444 18.1222 22.0111 18.6667C21.7778 19.0556 21.8556 19.7556 22.4 19.9889C22.9444 20.3 23.4889 20.1444 23.7222 19.6ZM5.98889 18.6667C5.75556 18.2778 5.21111 17.9667 4.66667 18.2778C4.27778 18.5111 3.96667 19.0556 4.27778 19.6C4.51111 19.9889 5.05556 20.3 5.6 19.9889C6.14444 19.7556 6.3 19.2111 5.98889 18.6667ZM22.1667 9.33333C22.4 9.72222 22.9444 10.0333 23.4889 9.72222C23.8778 9.48889 24.1889 8.94444 23.8778 8.4C23.6444 8.01111 23.1 7.7 22.5556 8.01111C22.0111 8.24444 21.8556 8.78889 22.1667 9.33333ZM9.33333 22.1667C8.94444 21.9333 8.24444 22.0111 8.01111 22.5556C7.77778 23.1 7.85556 23.6444 8.4 23.8778C8.78889 24.1111 9.48889 24.0333 9.72222 23.4889C10.0333 22.9444 9.87778 22.4 9.33333 22.1667ZM18.6667 5.98889C19.0556 6.22222 19.7556 6.14444 19.9889 5.6C20.2222 5.05556 20.1444 4.51111 19.6 4.27778C19.2111 4.04444 18.5111 4.12222 18.2778 4.66667C17.9667 5.21111 18.1222 5.75556 18.6667 5.98889ZM14.2333 1.63333H13.6889V2.17778H14.2333V1.63333ZM13.7667 26.3667H14.3111V25.8222H13.7667V26.3667ZM12.8333 2.1V1.63333H12.6778V2.17778H12.8333V2.1ZM15.1667 25.7444V26.2889H15.3222V25.7444H15.1667ZM11.7444 2.41111L11.5889 1.86667H11.4333L11.5889 2.41111H11.7444ZM16.4111 25.5889L16.5667 26.1333H16.7222L16.5667 25.5889H16.4111ZM10.1111 2.25556L10.2667 2.8H10.4222L10.2667 2.25556H10.1111ZM17.5778 25.2L17.7333 25.7444H17.8889L17.7333 25.2H17.5778ZM9.33333 3.18889L9.1 2.64444L8.94444 2.8L9.17778 3.34444L9.33333 3.18889ZM18.6667 24.8111L18.9 25.3556L19.0556 25.2L18.8222 24.6556L18.6667 24.8111ZM8.24444 3.73333L8.01111 3.18889L7.62222 3.5L7.85556 4.04444L8.24444 3.73333ZM19.7556 24.2667L19.9889 24.6556L20.3778 24.4222L20.1444 24.0333L19.7556 24.2667ZM6.76667 3.96667L7 4.35556L7.15556 4.2L6.92222 3.96667H6.76667ZM20.9222 23.5667L21.1556 23.9556L21.3111 23.8L21.0778 23.4111L20.9222 23.5667ZM5.75556 4.82222L6.14444 5.21111L6.3 5.05556L5.75556 4.82222ZM21.8556 22.7889L22.2444 23.1778L22.4 23.0222L21.8556 22.7889ZM5.36667 6.14444L4.9 5.75556L4.82222 5.83333L5.36667 6.14444ZM22.7889 21.8556L23.1778 22.2444L23.3333 22.0889L22.7889 21.8556ZM4.43333 6.92222L3.96667 6.68889L3.88889 6.76667L4.27778 7L4.43333 6.92222ZM23.4889 20.9222L23.8778 21.1556L24.0333 21L23.6444 20.7667L23.4889 20.9222ZM3.96667 7.85556L3.5 7.62222L3.26667 8.16667L3.65556 8.4L3.96667 7.85556ZM24.1111 19.9889L24.5 20.2222L24.7333 19.8333L24.3444 19.6L24.1111 19.9889ZM3.18889 9.1L2.8 8.94444L2.64444 9.1L3.18889 9.33333V9.1ZM24.8111 18.8222L25.3556 19.0556L25.5111 18.9L24.8111 18.6667V18.8222ZM2.8 10.2667L2.25556 10.0333V10.1111L2.8 10.2667ZM25.2 17.7333L25.7444 17.8889V17.7333L25.3556 17.5778L25.2 17.7333ZM2.56667 11.4333L2.02222 11.2778V11.4333L2.56667 11.5889V11.4333ZM25.4333 16.6444L25.9778 16.8V16.6444L25.4333 16.4889V16.6444ZM2.25556 12.5222H1.71111V12.6778H2.25556V12.5222ZM25.9 15.1667V15.3222H26.4444V15.1667H25.9ZM2.1 13.7667H1.63333V14.3111H2.17778V13.7667H2.1ZM25.9 14.2333H26.4444V13.6889H25.9V14.2333ZM2.25556 15.1667H1.71111V15.3222H2.25556V15.1667ZM25.7444 12.8333H26.2889V12.6778H25.7444V12.8333ZM2.41111 16.2556L1.86667 16.4111V16.5667L2.41111 16.4111V16.2556ZM25.5889 11.5889L26.1333 11.4333V11.2778L25.5889 11.4333V11.5889ZM2.8 17.5778L2.25556 17.7333V17.8889L2.8 17.7333V17.5778ZM25.2 10.4222L25.7444 10.2667V10.1111L25.2 10.2667V10.4222ZM3.18889 18.6667L2.64444 18.9L2.8 19.0556L3.18889 18.8222V18.6667ZM24.8111 9.33333L25.3556 9.1L25.2 8.94444L24.6556 9.17778L24.8111 9.33333ZM3.73333 19.7556L3.18889 19.9889L3.42222 20.3778L3.96667 20.1444L3.73333 19.7556ZM24.2667 8.24444L24.8111 8.01111L24.5778 7.62222L24.0333 7.85556L24.2667 8.24444ZM3.88889 21.2333L4.04444 21.3889L4.43333 21.1556L4.27778 21L3.88889 21.2333ZM24.0333 6.76667L23.8778 6.61111L23.4889 6.84444L23.6444 7L24.0333 6.76667ZM4.82222 22.1667L5.36667 21.9333L5.21111 21.7778L4.82222 22.1667ZM23.3333 5.75556L23.1778 5.6L22.7889 5.98889L22.9444 6.14444L23.3333 5.75556ZM5.75556 23.1L6.3 22.8667L6.06667 22.7111L5.75556 23.1ZM22.2444 4.82222L21.7 5.05556L21.8556 5.21111L22.2444 4.82222ZM6.68889 24.0333L6.76667 24.1111L7 23.7222L6.84444 23.5667L6.68889 24.0333ZM21.3111 4.12222L21.1556 3.96667L20.9222 4.35556L21.0778 4.51111L21.3111 4.12222ZM7.85556 24.0333L7.62222 24.4222L8.01111 24.8111L8.24444 24.4222L7.85556 24.0333ZM20.3778 3.5L19.9889 3.26667L19.7556 3.65556L20.1444 4.04444L20.3778 3.5ZM8.94444 25.2L9.1 25.3556L9.33333 24.8111L9.17778 24.6556L8.94444 25.2ZM19.0556 2.8L18.9 2.64444L18.6667 3.18889L18.8222 3.34444L19.0556 2.8ZM10.1111 25.5889H10.2667L10.4222 25.0444H10.2667L10.1111 25.5889ZM17.8889 2.41111H17.7333L17.5778 2.95556H17.7333L17.8889 2.41111ZM11.4333 25.9778H11.5889L11.7444 25.4333H11.5889L11.4333 25.9778ZM16.5667 2.02222H16.4111L16.2556 2.56667H16.4111L16.5667 2.02222ZM12.5222 26.2889H12.6778V25.7444H12.5222V26.2889ZM15.4778 1.71111H15.3222V2.25556H15.4778V1.71111ZM28 14C28 21.7 21.7 28 14 28C6.3 28 0 21.7 0 14C0 6.3 6.3 0 14 0C21.7 0 28 6.3 28 14ZM27.0667 14C27.0667 6.76667 21.0778 0.933333 14 0.933333C6.92222 0.933333 0.933333 6.92222 0.933333 14C0.933333 21.0778 6.92222 27.0667 14 27.0667C21.0778 27.0667 27.0667 21.2333 27.0667 14ZM15.7111 7.46667L15.8667 9.72222C15.8667 10.8889 15.0889 11.9778 14.1556 12.5222C12.9889 12.1333 12.2889 11.0444 12.2889 9.72222V7.46667C12.6778 8.01111 13.6111 8.16667 14 7.62222C14.1556 7.62222 14.1556 7.46667 14.1556 7.46667C14.5444 8.01111 15.3222 8.01111 15.7111 7.46667ZM12.6778 9.33333H13.7667V8.24444C13.3778 8.4 13.0667 8.4 12.6778 8.24444V9.33333ZM15.3222 9.72222H12.6778C12.6778 10.6556 13.0667 11.4333 14 11.8222C14.7778 11.5889 15.3222 10.6556 15.3222 9.72222ZM15.3222 8.4C14.9333 8.55556 14.5444 8.55556 14.1556 8.4V9.33333H15.3222V8.4Z" fill="#161616"/>
</g>
<defs>
<clipPath id="clip0_2720_20049">
<rect width="28" height="28" fill="white"/>
</clipPath>
</defs>
</svg>
