<svg width="22" height="26" viewBox="0 0 22 26" fill="none" xmlns="http://www.w3.org/2000/svg">
<ellipse cx="10.621" cy="14.7319" rx="9.62099" ry="9.94568" fill="white"/>
<path d="M17.8368 1.47107H5.00879V6.66536" stroke="#131313" stroke-width="2"/>
<path d="M1 14.7319C1 16.9834 1.73895 19.1682 3.09602 20.9291C4.45309 22.6901 6.34797 23.9229 8.47081 24.4261C10.5937 24.9292 12.8188 24.6729 14.7825 23.6991C16.7461 22.7253 18.332 21.0915 19.2809 19.065C20.2298 17.0385 20.4854 14.7391 20.006 12.5429C19.5267 10.3467 18.3407 8.38356 16.6419 6.97459C14.9432 5.56561 12.8323 4.79414 10.6544 4.78632C8.47648 4.7785 6.31602 5.87593 4.60787 7.27268" stroke="#131313" stroke-width="2"/>
<path d="M10.2163 16.6833L10.6102 17.2262L11.018 16.6937L18.6346 6.74797L17.8981 6.07691L10.5926 12.8341L6.11691 9.36405L5.40584 10.0528L10.2163 16.6833Z" fill="#131313" stroke="white"/>
</svg>
