<svg width="32" height="32" viewBox="0 0 32 32" fill="none" xmlns="http://www.w3.org/2000/svg">
<g clip-path="url(#clip0_2617_18700)">
<path d="M25.408 19.8099C24.7581 19.8126 24.1285 20.038 23.6232 20.4487L21.5596 19.2513V17.6978C22.2015 17.4697 22.7426 17.0208 23.0871 16.4306C23.4316 15.8404 23.5574 15.1467 23.4422 14.4723C23.3271 13.7979 22.9784 13.186 22.4579 12.745C21.9373 12.3039 21.2784 12.062 20.5975 12.062C19.9166 12.062 19.2577 12.3039 18.7371 12.745C18.2166 13.186 17.8679 13.7979 17.7528 14.4723C17.6376 15.1467 17.7634 15.8404 18.108 16.4306C18.4525 17.0208 18.9935 17.4697 19.6354 17.6978V19.2513L17.5718 20.4487C17.0665 20.038 16.4369 19.8126 15.787 19.8099C15.1839 19.8059 14.5946 19.9906 14.1007 20.3383C13.6067 20.6861 13.2327 21.1798 13.0305 21.7508C12.8283 22.3218 12.8079 22.9419 12.9721 23.5251C13.1363 24.1084 13.4771 24.6258 13.947 25.0056C14.417 25.3854 14.9929 25.6089 15.5949 25.6449C16.1969 25.681 16.7952 25.5279 17.3068 25.2069C17.8183 24.8859 18.2178 24.4128 18.4498 23.8533C18.6818 23.2939 18.7348 22.6757 18.6015 22.0846L20.5975 20.9265L22.5935 22.0846C22.4649 22.6707 22.5206 23.2825 22.7528 23.8355C22.9849 24.3885 23.3822 24.8554 23.8897 25.1718C24.3971 25.4882 24.9898 25.6385 25.5859 25.6019C26.182 25.5653 26.7521 25.3436 27.2175 24.9675C27.6829 24.5913 28.0206 24.0793 28.1841 23.502C28.3475 22.9247 28.3287 22.3107 28.1301 21.7446C27.9315 21.1786 27.563 20.6885 27.0754 20.3419C26.5878 19.9953 26.0052 19.8094 25.408 19.8099ZM15.787 23.6776C15.5967 23.6776 15.4107 23.6209 15.2525 23.5147C15.0943 23.4084 14.971 23.2574 14.8981 23.0807C14.8253 22.904 14.8063 22.7096 14.8434 22.522C14.8805 22.3345 14.9722 22.1622 15.1067 22.0269C15.2413 21.8917 15.4127 21.7996 15.5993 21.7623C15.7859 21.725 15.9794 21.7442 16.1552 21.8173C16.331 21.8905 16.4813 22.0145 16.587 22.1735C16.6927 22.3325 16.7491 22.5194 16.7491 22.7107C16.749 22.9671 16.6475 23.2129 16.4672 23.3942C16.2868 23.5755 16.0421 23.6775 15.787 23.6776ZM20.5975 14.0082C20.7878 14.0082 20.9738 14.0649 21.132 14.1712C21.2902 14.2774 21.4136 14.4284 21.4864 14.6051C21.5592 14.7818 21.5782 14.9762 21.5411 15.1638C21.504 15.3514 21.4124 15.5236 21.2778 15.6589C21.1433 15.7941 20.9718 15.8862 20.7852 15.9235C20.5986 15.9608 20.4051 15.9417 20.2293 15.8685C20.0535 15.7953 19.9033 15.6714 19.7976 15.5123C19.6918 15.3533 19.6354 15.1664 19.6354 14.9751C19.6356 14.7188 19.7371 14.473 19.9175 14.2917C20.0978 14.1104 20.3424 14.0084 20.5975 14.0082ZM25.408 23.6776C25.2177 23.6776 25.0317 23.6209 24.8735 23.5147C24.7153 23.4084 24.592 23.2574 24.5191 23.0807C24.4463 22.904 24.4273 22.7096 24.4644 22.522C24.5015 22.3345 24.5931 22.1622 24.7277 22.0269C24.8622 21.8917 25.0337 21.7996 25.2203 21.7623C25.4069 21.725 25.6004 21.7442 25.7762 21.8173C25.952 21.8905 26.1022 22.0145 26.208 22.1735C26.3137 22.3325 26.3701 22.5194 26.3701 22.7107C26.37 22.9671 26.2685 23.2129 26.0881 23.3942C25.9077 23.5755 25.6631 23.6775 25.408 23.6776Z" fill="black"/>
<path d="M15.7872 30.4462C12.9814 30.443 10.2914 29.3214 8.30733 27.3274C6.32331 25.3334 5.20728 22.6298 5.2041 19.8099V6.64234L15.775 1.32349L25.839 6.38746L24.9774 8.11683L15.775 3.48634L7.1283 7.83691V19.8099C7.12845 21.4259 7.57629 23.01 8.42164 24.3847C9.26699 25.7593 10.4765 26.8703 11.9146 27.5932C13.3527 28.316 14.9627 28.6221 16.5642 28.4773C18.1656 28.3324 19.6953 27.7423 20.982 26.773L22.1376 28.319C20.3086 29.7057 18.0783 30.4529 15.7872 30.4462Z" fill="black"/>
</g>
<defs>
<clipPath id="clip0_2617_18700">
<rect width="30.7872" height="30.9421" fill="white" transform="translate(0.393555 0.471069)"/>
</clipPath>
</defs>
</svg>
